<svg xmlns="http://www.w3.org/2000/svg" viewBox="0 0 200 200" fill="none">
  <defs>
    <radialGradient id="patchBg" cx="0.5" cy="0.4" r="0.7">
      <stop offset="0%" stop-color="#1c1917"/>
      <stop offset="60%" stop-color="#0c0a09"/>
      <stop offset="100%" stop-color="#0a0a0b"/>
    </radialGradient>
    <path id="curveTop" d="M 100 100 m -80 0 a 80 80 0 0 1 160 0"/>
    <path id="curveBottom" d="M 100 100 m -78 0 a 78 78 0 1 0 156 0"/>
  </defs>

  <circle cx="100" cy="100" r="95" fill="url(#patchBg)"/>
  <circle cx="100" cy="100" r="95" stroke="#ea580c" stroke-width="2"/>
  <circle cx="100" cy="100" r="84" stroke="#ea580c" stroke-width="0.7" opacity="0.5"/>
  <circle cx="100" cy="100" r="62" stroke="#facc15" stroke-width="0.4" opacity="0.6" stroke-dasharray="2 3"/>

  <text font-family="JetBrains Mono, monospace" font-size="9" font-weight="700" fill="#ea580c" letter-spacing="3">
    <textPath href="#curveTop" startOffset="50%" text-anchor="middle">VOYAGER · DEEP DATA NETWORK</textPath>
  </text>
  <text font-family="JetBrains Mono, monospace" font-size="7" font-weight="500" fill="#facc15" letter-spacing="2" opacity="0.85">
    <textPath href="#curveBottom" startOffset="50%" text-anchor="middle">EST. 1977 · OPS 2026 · FED.BR</textPath>
  </text>

  <g transform="translate(100, 102)">
    <path d="M -28 -22 L 0 28 L 28 -22" stroke="#fafafa" stroke-width="6" stroke-linecap="round" stroke-linejoin="round" fill="none"/>
    <circle cx="0" cy="36" r="3.5" fill="#facc15"/>
    <line x1="-22" y1="-22" x2="22" y2="-22" stroke="#facc15" stroke-width="1.2" opacity="0.7"/>
    <line x1="-16" y1="-30" x2="16" y2="-30" stroke="#facc15" stroke-width="0.8" opacity="0.5"/>
    <path d="M -36 -10 Q 0 -50 36 -10" stroke="#93c5fd" stroke-width="0.6" opacity="0.5" fill="none"/>
  </g>

  <circle cx="40" cy="58" r="1.2" fill="#fafafa"/>
  <circle cx="160" cy="55" r="1" fill="#fafafa"/>
  <circle cx="155" cy="150" r="1.1" fill="#fafafa"/>
  <circle cx="48" cy="148" r="0.9" fill="#fafafa"/>
  <circle cx="35" cy="105" r="0.7" fill="#93c5fd"/>
  <circle cx="165" cy="105" r="0.7" fill="#93c5fd"/>
  <circle cx="100" cy="40" r="0.6" fill="#facc15"/>
  <circle cx="100" cy="165" r="0.6" fill="#facc15"/>
</svg>
